<?xml version="1.0" standalone="no"?>
<!DOCTYPE svg PUBLIC "-//W3C//DTD SVG 20010904//EN"
 "http://www.w3.org/TR/2001/REC-SVG-20010904/DTD/svg10.dtd">
<svg version="1.0" xmlns="http://www.w3.org/2000/svg"
 width="500.000000pt" height="360.000000pt" viewBox="0 0 500.000000 360.000000"
 preserveAspectRatio="xMidYMid meet">

<g transform="translate(0.000000,360.000000) scale(0.100000,-0.100000)"
fill="#000000" stroke="none">
<path d="M0 1800 l0 -1800 2500 0 2500 0 0 1800 0 1800 -1128 0 -1128 0 -26
-27 c-37 -39 -45 -63 -68 -228 -26 -189 -27 -181 11 -153 25 19 46 24 120 26
77 4 91 7 104 25 8 12 15 31 15 42 1 38 39 104 72 125 37 22 109 27 155 9 59
-22 122 -108 123 -167 0 -15 20 -42 55 -75 67 -63 80 -105 45 -150 -12 -15
-36 -34 -53 -41 -45 -19 -117 -89 -117 -114 0 -55 80 -62 154 -13 29 19 53 26
88 26 45 0 53 -4 88 -41 106 -114 20 -266 -112 -198 -33 17 -56 16 -153 -10
-108 -28 -189 -17 -220 30 -25 39 -33 28 -28 -37 5 -52 11 -67 40 -98 18 -20
42 -55 52 -78 11 -22 44 -78 75 -123 31 -46 56 -91 56 -102 0 -10 15 -49 34
-86 18 -37 36 -90 40 -119 4 -29 13 -71 22 -95 8 -23 22 -92 30 -152 8 -61 22
-122 29 -136 8 -14 16 -37 19 -52 5 -22 21 -34 81 -64 79 -38 109 -68 103
-106 -7 -50 -60 -57 -245 -33 -153 21 -171 37 -143 133 12 45 -18 186 -59 272
-22 45 -31 80 -31 114 0 45 -4 53 -43 91 -24 23 -60 54 -81 70 l-38 29 -63
-17 c-35 -9 -67 -17 -72 -17 -5 0 -24 31 -43 69 l-33 70 -82 -75 c-45 -41 -86
-74 -91 -74 -5 -1 -28 -18 -51 -38 l-41 -37 -27 -190 c-38 -277 -66 -360 -147
-429 -74 -63 -118 -71 -408 -71 -213 0 -264 3 -310 17 -101 31 -165 106 -204
238 -17 57 -28 126 -196 1275 -55 374 -102 691 -105 704 -4 13 -20 37 -37 53
l-30 28 -499 0 -499 0 0 -1800z m728 -763 c6 -7 23 -85 37 -172 24 -150 30
-174 39 -164 2 2 15 77 29 166 14 90 29 167 32 173 3 5 29 10 57 10 44 0 49
-2 43 -17 -4 -10 -18 -97 -31 -193 -13 -96 -29 -187 -35 -203 -14 -33 -34 -39
-119 -35 -58 3 -66 6 -77 28 -6 14 -23 104 -38 200 -14 96 -28 185 -31 197 -6
21 -3 23 39 23 24 0 49 -6 55 -13z m392 4 c0 -6 -4 -13 -10 -16 -14 -8 -13
-380 0 -406 10 -18 7 -19 -52 -19 l-63 0 0 225 0 225 63 0 c34 0 62 -4 62 -9z
m140 -166 l5 -170 30 0 c22 0 31 5 34 20 5 28 19 35 70 35 40 0 43 -2 37 -22
-3 -13 -6 -40 -6 -60 0 -65 -23 -78 -140 -78 -134 0 -128 -11 -132 248 l-3
203 50 -3 50 -3 5 -170z m318 163 c8 -8 12 -62 12 -175 l0 -163 30 0 c22 0 30
5 30 18 0 30 21 42 73 42 43 0 48 -2 41 -17 -4 -10 -9 -38 -12 -63 -7 -72 -20
-80 -130 -80 -138 0 -132 -11 -132 226 0 118 -4 195 -10 199 -5 3 -10 10 -10
16 0 13 94 11 108 -3z m482 -8 c16 -16 20 -33 20 -90 0 -66 -2 -72 -36 -109
-19 -22 -48 -43 -65 -46 -38 -9 -59 -30 -59 -61 0 -20 5 -24 29 -24 25 0 30 4
33 28 3 26 6 27 61 30 55 3 58 2 48 -17 -6 -11 -11 -39 -11 -62 0 -69 -16 -79
-130 -79 -139 0 -135 -7 -135 227 0 182 0 185 24 204 19 16 39 19 112 19 76 0
92 -3 109 -20z m197 -41 c70 -114 62 -113 121 -20 51 81 51 81 94 81 l43 0 0
-225 0 -226 -50 3 -50 3 -5 120 -5 120 -38 -57 c-21 -32 -41 -58 -45 -58 -4 0
-23 26 -42 58 l-35 57 -3 -109 c-1 -61 -8 -116 -14 -123 -6 -7 -31 -13 -57
-13 l-46 0 0 225 0 225 47 0 c48 0 48 0 85 -61z m584 42 c24 -19 24 -22 24
-204 0 -236 6 -227 -147 -227 -154 0 -148 -9 -148 225 0 234 -5 225 144 225
87 0 108 -3 127 -19z m172 5 c7 -8 31 -44 53 -80 21 -36 41 -66 44 -66 3 0 25
33 49 73 25 39 49 75 55 79 6 4 29 8 51 8 l40 0 0 -225 0 -226 -50 3 -50 3 -3
118 c-1 64 -6 117 -10 117 -4 0 -23 -25 -41 -55 -18 -30 -37 -55 -41 -55 -5 0
-24 26 -44 58 l-35 57 -1 -97 c0 -53 -4 -108 -10 -122 -8 -23 -15 -26 -57 -26
l-48 0 0 225 0 225 42 0 c23 0 48 -6 56 -14z m587 -5 c17 -18 19 -35 19 -208
0 -158 -3 -190 -16 -205 -14 -15 -34 -18 -137 -18 l-121 0 0 225 0 225 118 0
c103 0 119 -2 137 -19z m180 -156 l5 -170 30 0 c22 0 31 5 34 20 5 27 19 35
68 35 l42 0 -5 -37 c-12 -90 -16 -103 -34 -113 -10 -5 -59 -10 -109 -10 -135
0 -131 -6 -131 229 0 104 -3 197 -6 206 -6 14 1 16 47 13 l54 -3 5 -170z m475
150 c20 -19 25 -34 25 -77 0 -79 -31 -126 -105 -163 -50 -25 -61 -35 -63 -58
-3 -27 -1 -28 29 -25 26 2 35 9 39 28 5 22 12 25 57 28 l51 3 -5 -43 c-12
-114 -17 -118 -143 -118 -135 0 -130 -8 -130 227 0 228 -3 223 130 223 83 0
93 -2 115 -25z m-3071 -597 c11 -18 15 -59 15 -175 0 -152 0 -153 -26 -173
-22 -17 -40 -20 -117 -20 l-91 0 0 195 0 195 102 0 c95 0 104 -2 117 -22z
m298 5 c16 -14 18 -34 18 -175 0 -198 0 -198 -124 -198 -68 0 -88 4 -107 19
-23 19 -24 23 -24 179 0 120 3 163 14 175 20 25 196 25 223 0z m152 1 c3 -9 6
-42 6 -75 l0 -59 33 13 c28 12 32 19 35 53 5 80 8 84 58 84 l46 0 -6 -82 c-7
-103 -7 -84 0 -205 l6 -103 -40 0 c-52 0 -62 17 -62 100 l0 62 -32 -19 c-29
-16 -34 -26 -38 -69 -7 -66 -14 -74 -62 -74 l-40 0 6 83 c7 97 7 87 0 210 l-6
97 45 0 c32 0 47 -5 51 -16z m311 -179 l0 -195 -50 0 -50 0 0 195 0 195 50 0
50 0 0 -195z m192 85 l78 -110 2 87 c4 130 5 133 56 133 l42 0 0 -195 0 -196
-40 3 c-38 3 -44 8 -117 107 l-78 103 0 -94 c0 -106 -6 -118 -59 -118 l-36 0
0 195 0 195 37 0 c37 0 40 -3 115 -110z m433 90 c15 -15 20 -33 20 -70 0 -28
-5 -50 -10 -50 -7 0 -7 -6 0 -19 5 -11 10 -56 10 -101 0 -73 -3 -83 -25 -105
-21 -22 -33 -25 -93 -25 -54 0 -75 4 -93 19 -23 19 -24 23 -24 181 0 194 -2
190 117 190 65 0 81 -3 98 -20z m524 -2 c7 -13 16 -45 19 -71 l5 -48 -47 3
c-39 3 -46 6 -49 26 -3 16 -10 22 -28 22 l-25 0 3 -102 c3 -95 5 -103 23 -103
12 0 21 9 25 25 5 22 11 25 48 25 23 0 42 -3 42 -7 0 -5 0 -26 0 -48 0 -30 -7
-47 -25 -65 -21 -22 -33 -25 -93 -25 -54 0 -75 4 -93 19 -23 18 -24 27 -28
146 -6 214 1 225 124 225 77 0 86 -2 99 -22z m146 -128 c5 -137 6 -145 25
-145 11 0 24 10 30 23 8 18 18 22 54 22 l44 0 -6 -53 c-9 -72 -29 -87 -117
-87 -52 0 -73 5 -91 19 -23 19 -24 25 -29 196 l-5 176 45 -3 45 -3 5 -145z
m268 3 c1 -79 6 -143 10 -144 4 -1 21 -2 37 -3 l30 -1 5 145 5 145 45 3 45 3
-5 -176 c-5 -173 -6 -177 -30 -197 -21 -17 -36 -19 -113 -16 -119 4 -117 0
-117 199 0 87 -3 165 -6 174 -6 14 0 16 42 13 l49 -3 3 -142z m426 132 c20
-21 30 -78 21 -123 -4 -20 -6 -48 -5 -62 2 -14 3 -54 4 -89 0 -91 -16 -103
-141 -99 l-94 3 -2 193 -2 192 102 0 c78 0 105 -4 117 -15z"/>
<path d="M1920 910 c0 -22 3 -40 8 -40 20 0 52 34 52 56 0 20 -5 24 -30 24
-28 0 -30 -2 -30 -40z"/>
<path d="M2677 943 c-4 -3 -7 -60 -7 -125 l0 -118 45 0 45 0 0 125 0 125 -38
0 c-21 0 -42 -3 -45 -7z"/>
<path d="M3460 915 c0 -32 2 -35 30 -35 28 0 30 3 30 35 0 32 -2 35 -30 35
-28 0 -30 -3 -30 -35z"/>
<path d="M3460 735 c0 -32 2 -35 30 -35 28 0 30 3 30 35 0 32 -2 35 -30 35
-28 0 -30 -3 -30 -35z"/>
<path d="M4117 944 c-11 -11 -8 -74 3 -74 17 0 62 49 57 63 -4 14 -49 22 -60
11z"/>
<path d="M990 318 c0 -62 5 -120 10 -128 5 -8 10 -10 11 -5 0 6 4 1 9 -10 7
-17 9 -16 9 11 1 16 6 35 13 42 21 21 88 12 88 -12 0 -6 9 -19 20 -29 19 -16
20 -16 20 18 0 19 -4 35 -10 35 -15 0 -12 26 5 40 18 15 21 101 5 131 -9 16
-22 19 -95 19 l-85 0 0 -112z m129 58 c7 -8 11 -32 9 -53 -3 -36 -5 -38 -40
-41 -29 -3 -39 1 -48 18 -13 24 -5 71 13 82 19 12 54 9 66 -6z"/>
<path d="M1060 335 c0 -20 5 -25 25 -25 20 0 25 5 25 25 0 20 -5 25 -25 25
-20 0 -25 -5 -25 -25z"/>
<path d="M1060 179 c0 -26 3 -30 23 -27 16 2 23 11 25 31 3 23 0 27 -22 27
-22 0 -26 -4 -26 -31z"/>
<path d="M1277 423 c-4 -3 -7 -61 -6 -127 0 -67 3 -115 6 -108 8 21 23 13 25
-15 1 -16 4 24 7 87 l6 115 55 0 c48 0 55 -3 57 -20 1 -11 5 -56 8 -99 5 -52
10 -74 16 -65 7 12 9 12 10 -1 3 -28 17 94 18 156 1 35 -4 65 -11 72 -13 13
-179 17 -191 5z"/>
<path d="M1340 261 c0 -59 4 -102 11 -106 5 -4 21 -4 35 -1 23 6 24 9 24 106
l0 100 -35 0 -35 0 0 -99z"/>
<path d="M1570 353 c0 -57 4 -81 17 -95 15 -17 15 -19 -1 -37 -10 -11 -16 -26
-13 -33 3 -8 6 -6 6 5 1 12 7 17 19 15 9 -1 39 8 65 20 54 25 76 19 78 -22 0
-11 3 -15 6 -8 4 10 8 10 19 1 11 -9 14 -6 14 19 0 19 -7 35 -17 41 -17 9 -17
10 0 28 12 14 17 37 17 81 0 55 -2 62 -20 62 -17 0 -20 -7 -20 -46 0 -37 -5
-51 -29 -74 -34 -35 -79 -49 -92 -29 -5 8 -9 44 -9 82 0 60 -2 67 -20 67 -18
0 -20 -7 -20 -77z"/>
<path d="M1870 378 c0 -94 13 -196 21 -168 l7 25 2 -25 c4 -38 18 76 19 153 1
65 0 67 -24 67 -24 0 -25 -3 -25 -52z"/>
<path d="M2010 313 c0 -81 3 -113 10 -103 9 13 11 13 20 0 7 -11 10 -2 10 33
0 68 22 74 71 17 44 -51 82 -67 53 -22 -100 155 -129 192 -146 192 -16 0 -18
-10 -18 -117z"/>
<path d="M2247 423 c-10 -9 -7 -164 3 -188 6 -13 9 -15 9 -5 1 12 3 12 10 2
13 -21 21 21 21 116 0 73 -2 82 -18 82 -10 0 -22 -3 -25 -7z"/>
<path d="M2392 418 c-8 -8 -12 -46 -12 -107 1 -84 2 -94 15 -78 13 18 14 17
18 -10 2 -15 5 11 6 60 1 83 2 88 26 99 33 15 75 -3 75 -32 0 -13 7 -20 20
-20 17 0 20 7 20 44 0 31 -5 46 -16 50 -28 11 -140 6 -152 -6z"/>
<path d="M2449 348 c-6 -47 -3 -188 4 -189 35 -6 42 -2 42 21 0 15 -5 24 -13
22 -18 -3 -25 22 -18 63 5 26 12 35 26 35 23 0 23 0 10 34 -10 27 -49 37 -51
14z"/>
<path d="M2496 273 c-12 -12 -6 -33 9 -33 8 0 15 -8 15 -17 0 -15 2 -16 9 -3
6 8 7 19 3 25 -3 5 2 3 12 -5 16 -13 18 -12 14 10 -2 18 -10 25 -30 27 -14 1
-29 -1 -32 -4z"/>
<path d="M2912 418 c-8 -8 -12 -44 -11 -107 1 -56 4 -86 8 -71 7 24 7 24 19 5
9 -17 11 -9 12 47 0 47 5 71 16 82 26 27 70 17 84 -19 4 -12 16 -22 25 -22 13
0 15 9 13 46 l-3 46 -75 3 c-50 2 -79 -1 -88 -10z"/>
<path d="M3178 423 c-2 -5 0 -48 3 -98 3 -49 6 -84 7 -77 1 6 9 12 17 12 12 0
15 16 15 85 0 77 -2 85 -19 85 -11 0 -21 -3 -23 -7z"/>
<path d="M3444 378 c3 -29 6 -67 6 -85 0 -24 4 -31 14 -27 8 3 16 -2 19 -13 3
-10 5 26 6 80 l1 97 -26 0 c-26 0 -27 -1 -20 -52z"/>
<path d="M3610 350 c0 -47 4 -80 10 -80 6 0 10 6 11 13 0 6 4 3 9 -8 6 -13 9
9 9 68 1 81 0 87 -19 87 -18 0 -20 -7 -20 -80z"/>
<path d="M3751 338 c1 -51 4 -83 6 -71 3 14 9 20 19 16 11 -4 14 5 14 45 0 53
8 62 55 62 30 0 43 -17 47 -65 2 -27 8 -40 18 -40 11 0 16 14 18 58 4 80 -3
87 -99 87 l-79 0 1 -92z"/>
<path d="M3810 336 c0 -13 6 -26 13 -29 22 -7 37 4 37 29 0 19 -5 24 -25 24
-20 0 -25 -5 -25 -24z"/>
<path d="M3812 183 c2 -20 9 -29 26 -31 19 -3 22 1 22 27 0 27 -4 31 -26 31
-22 0 -25 -4 -22 -27z"/>
<path d="M1410 3589 c37 -15 78 -58 90 -93 9 -28 43 -235 165 -1016 25 -157
56 -352 70 -435 13 -82 27 -171 30 -196 10 -69 37 -107 81 -115 56 -10 105 6
125 41 10 19 32 133 58 305 22 151 77 520 121 820 45 300 85 561 91 581 12 47
44 88 83 105 27 11 -40 13 -454 13 -332 0 -477 -3 -460 -10z"/>
<path d="M2705 3160 c-3 -6 1 -7 9 -4 18 7 21 14 7 14 -6 0 -13 -4 -16 -10z"/>
<path d="M2667 3133 c-30 -59 -50 -181 -45 -281 5 -81 2 -102 -15 -141 -10
-25 -26 -54 -35 -63 -13 -16 -54 -273 -87 -543 l-7 -60 29 28 c16 15 33 27 37
27 15 0 148 125 162 152 8 16 10 28 5 28 -5 0 -11 -9 -14 -19 -2 -10 -14 -24
-26 -30 -27 -15 -27 -7 0 18 12 11 19 26 16 35 -4 10 -1 13 9 9 13 -5 12 12
-4 41 -3 5 -4 46 -3 92 1 46 -3 92 -8 103 -7 13 -8 22 -1 26 12 8 12 175 -1
175 -12 0 -12 67 1 75 6 4 9 67 7 160 -1 130 -4 149 -14 127 l-12 -27 6 30 c3
17 10 36 16 43 5 7 7 15 4 18 -3 3 -12 -7 -20 -23z m7 -107 c-3 -15 -8 -25
-11 -23 -2 3 -1 17 3 31 3 15 8 25 11 23 2 -3 1 -17 -3 -31z m-27 -18 c-3 -8
-6 -5 -6 6 -1 11 2 17 5 13 3 -3 4 -12 1 -19z m30 -40 c-3 -8 -6 -5 -6 6 -1
11 2 17 5 13 3 -3 4 -12 1 -19z"/>
<path d="M2570 2773 c0 -21 3 -24 9 -14 5 8 7 20 4 28 -8 21 -13 15 -13 -14z"/>
<path d="M2681 2754 c0 -11 3 -14 6 -6 3 7 2 16 -1 19 -3 4 -6 -2 -5 -13z"/>
<path d="M2741 2270 c14 -31 19 -36 19 -24 0 6 -7 19 -16 30 -14 18 -14 18 -3
-6z"/>
<path d="M2766 2217 c3 -10 9 -15 12 -12 3 3 0 11 -7 18 -10 9 -11 8 -5 -6z"/>
</g>
</svg>
